<svg width="23" height="24" viewBox="0 0 23 24" fill="none" xmlns="http://www.w3.org/2000/svg">
<g id="basket">
<path id="Union" fill-rule="evenodd" clip-rule="evenodd" d="M5.69817 7.00037L10.0968 2.78504C11.1605 1.76566 12.8385 1.76566 13.9022 2.78504L18.3008 7.00037H20.8465C21.4551 7.00037 21.9225 7.53935 21.8365 8.14179L20.3675 18.4246C20.1563 19.9026 18.8906 21.0004 17.3976 21.0004H6.60141C5.10846 21.0004 3.8427 19.9026 3.63156 18.4246L2.16258 8.14179C2.07652 7.53935 2.54398 7.00037 3.15253 7.00037H5.69817ZM11.1346 3.86802C11.6181 3.40467 12.3809 3.40467 12.8644 3.86802L16.1329 7.00037H7.86609L11.1346 3.86802ZM3.72904 8.50037L5.11648 18.2125C5.22205 18.9515 5.85493 19.5004 6.60141 19.5004H17.3976C18.1441 19.5004 18.777 18.9515 18.8826 18.2125L20.27 8.50037H3.72904Z" fill="#6E685E"/>
<path id="Vector 606 (Stroke)" fill-rule="evenodd" clip-rule="evenodd" d="M8 11.25C8.41421 11.25 8.75 11.5858 8.75 12V16C8.75 16.4142 8.41421 16.75 8 16.75C7.58579 16.75 7.25 16.4142 7.25 16V12C7.25 11.5858 7.58579 11.25 8 11.25Z" fill="#6E685E"/>
<path id="Vector 607 (Stroke)" fill-rule="evenodd" clip-rule="evenodd" d="M12 11.25C12.4142 11.25 12.75 11.5858 12.75 12V16C12.75 16.4142 12.4142 16.75 12 16.75C11.5858 16.75 11.25 16.4142 11.25 16V12C11.25 11.5858 11.5858 11.25 12 11.25Z" fill="#6E685E"/>
<path id="Vector 608 (Stroke)" fill-rule="evenodd" clip-rule="evenodd" d="M16 11.25C16.4142 11.25 16.75 11.5858 16.75 12V16C16.75 16.4142 16.4142 16.75 16 16.75C15.5858 16.75 15.25 16.4142 15.25 16V12C15.25 11.5858 15.5858 11.25 16 11.25Z" fill="#6E685E"/>
</g>
</svg>
