<svg width="156" height="31" viewBox="0 0 156 31" fill="none" xmlns="http://www.w3.org/2000/svg">
<path d="M11.0969 23.2894C4.75906 23.2894 0.12866 18.3407 0.12866 12.4369C0.12866 6.41738 4.75906 1.5844 11.0969 1.5844C15.2932 1.5844 18.6792 3.7549 20.5314 6.99618L18.1004 8.47212C16.6823 5.83858 14.2224 4.27582 11.0969 4.27582C6.32182 4.27582 2.96478 7.98014 2.96478 12.4369C2.96478 16.9226 6.35076 20.569 11.0969 20.569C15.409 20.569 18.0715 17.9066 18.6792 14.2022H10.7496V11.5398H21.6021V12.5237C21.6021 18.3117 17.6952 23.2894 11.0969 23.2894ZM24.7623 23V1.5844H27.5405V23H24.7623ZM39.2203 23.3473C34.4741 23.3473 30.5962 19.5851 30.5962 14.5495C30.5962 9.48502 34.4162 5.72282 39.2203 5.72282C41.6223 5.72282 44.0822 6.88042 45.4424 8.87728V6.0701H48.1627V23H45.4424V20.1349C44.7768 21.1478 43.8507 21.9582 42.6931 22.508C41.5644 23.0579 40.4068 23.3473 39.2203 23.3473ZM39.4807 20.8006C42.9535 20.8006 45.645 18.0223 45.645 14.5206C45.645 11.0478 42.9535 8.2406 39.4807 8.2406C36.0948 8.2406 33.3744 11.0478 33.3744 14.5206C33.3744 18.0223 36.0948 20.8006 39.4807 20.8006ZM50.5044 23L57.1895 14.3759L50.7938 6.0701H54.1508L58.897 12.3501L63.6431 6.0701H66.9423L60.5176 14.3759L67.2606 23H63.8747L58.8391 16.4017L53.8904 23H50.5044ZM76.6105 23.3473C71.8644 23.3473 67.9864 19.5851 67.9864 14.5495C67.9864 9.48502 71.8065 5.72282 76.6105 5.72282C79.0125 5.72282 81.4724 6.88042 82.8326 8.87728V6.0701H85.553V23H82.8326V20.1349C82.167 21.1478 81.2409 21.9582 80.0833 22.508C78.9547 23.0579 77.7971 23.3473 76.6105 23.3473ZM76.871 20.8006C80.3438 20.8006 83.0352 18.0223 83.0352 14.5206C83.0352 11.0478 80.3438 8.2406 76.871 8.2406C73.485 8.2406 70.7646 11.0478 70.7646 14.5206C70.7646 18.0223 73.485 20.8006 76.871 20.8006ZM87.8946 23L94.5798 14.3759L88.184 6.0701H91.5411L96.2872 12.3501L101.033 6.0701H104.333L97.9079 14.3759L104.651 23H101.265L96.2294 16.4017L91.2806 23H87.8946ZM109.234 30.8138L113.054 22.1029L105.761 6.0701H108.771L114.472 18.8905L119.768 6.0701H122.72L112.128 30.8138H109.234ZM125.173 23V1.8738H137.125V4.53628H127.951V11.0767H137.125V13.7392H127.951V23H125.173ZM140.465 23V6.0701H143.243V23H140.465ZM139.886 1.93168C139.886 0.774079 140.668 -0.00730091 141.854 -0.00730091C143.128 -0.00730091 143.851 0.774079 143.851 1.93168C143.851 3.11822 143.128 3.8996 141.854 3.8996C140.61 3.8996 139.886 3.11822 139.886 1.93168ZM145.895 8.55894V6.0701H148.847V2.85776L151.567 0.976659V6.0701H155.532V8.55894H151.567V16.4306C151.567 19.8166 152.175 20.3954 155.532 20.3954V23H155.127C150.178 23 148.847 21.553 148.847 16.4596V8.55894H145.895Z" fill="#808080"/>
</svg>
